<?xml version="1.0" encoding="utf-8"?>
<!-- Generator: Adobe Illustrator 23.0.1, SVG Export Plug-In . SVG Version: 6.00 Build 0)  -->
<svg version="1.1" id="Close_button" xmlns="http://www.w3.org/2000/svg" xmlns:xlink="http://www.w3.org/1999/xlink" x="0px"
	 y="0px" viewBox="0 0 50 50" style="enable-background:new 0 0 50 50;" xml:space="preserve">
<path d="M36.3,25l13.1-13.1c0.8-0.8,0.8-2.2,0-3l-8.3-8.3c-0.8-0.8-2.2-0.8-3,0L25,13.7L11.9,0.6c-0.8-0.8-2.2-0.8-3,0L0.6,8.9
	c-0.8,0.8-0.8,2.2,0,3L13.7,25L0.6,38.1c-0.8,0.8-0.8,2.2,0,3l8.3,8.3c0.8,0.8,2.2,0.8,3,0L25,36.3l13.1,13.1c0.8,0.8,2.2,0.8,3,0
	l8.3-8.3c0.8-0.8,0.8-2.2,0-3L36.3,25z"/>
</svg>
