<?xml version="1.0" encoding="utf-8"?>
<svg xmlns="http://www.w3.org/2000/svg" width="32" height="32" viewBox="0 0 32 32">
    <g fill="none" fill-rule="evenodd">
        <g>
            <g>
                <path d="M0 0L32 0 32 32 0 32z" transform="translate(-978 -14) translate(978 14)"/>
                <path d="M16 2C8.258 2 2 8.258 2 16s6.258 14 14 14 14-6.258 14-14S23.742 2 16 2z" transform="translate(-978 -14) translate(978 14)"/>
                <path fill="#0592AF" d="M23 21.026L21.026 23 16 17.974 10.974 23 9 21.026 14.026 16 9 10.974 10.974 9 16 14.026 21.026 9 23 10.974 17.974 16z" transform="translate(-978 -14) translate(978 14)"/>
            </g>
        </g>
    </g>
</svg>
