<?xml version="1.0" encoding="utf-8"?>
<!-- Generator: Adobe Illustrator 23.0.1, SVG Export Plug-In . SVG Version: 6.00 Build 0)  -->
<svg version="1.1" id="Share_Work_button" xmlns="http://www.w3.org/2000/svg" xmlns:xlink="http://www.w3.org/1999/xlink" x="0px"
	 y="0px" viewBox="0 0 50 50" style="enable-background:new 0 0 50 50;" xml:space="preserve">
<path d="M47,0H28.71l7.19,8.71H48V47c0,0.55-0.45,1-1,1H3c-0.55,0-1-0.45-1-1V8.71h12.1L21.29,0H3C1.34,0,0,1.34,0,3v5.71V47
	c0,1.66,1.34,3,3,3h44c1.66,0,3-1.34,3-3V8.71V3C50,1.34,48.66,0,47,0z"/>
<g>
	<path d="M36.85,14.57L25,0.22L13.15,14.57c-0.47,0.64-0.04,1.57,0.73,1.57h3.62v7.14c0,0.28,0.22,0.5,0.5,0.5h14
		c0.28,0,0.5-0.22,0.5-0.5v-7.14l3.61,0C36.89,16.14,37.32,15.21,36.85,14.57z"/>
</g>
</svg>
