<?xml version="1.0" encoding="utf-8"?>
<!-- Generator: Adobe Illustrator 23.0.1, SVG Export Plug-In . SVG Version: 6.00 Build 0)  -->
<svg version="1.1" id="Shared_icon" xmlns="http://www.w3.org/2000/svg" xmlns:xlink="http://www.w3.org/1999/xlink" x="0px"
	 y="0px" viewBox="0 0 52 50" style="enable-background:new 0 0 52 50;" xml:space="preserve">
<g>
	<path d="M51.14,30.46L26,0L0.86,30.46c-1.01,1.36-0.08,3.33,1.56,3.33h7.67v15.15c0,0.59,0.48,1.06,1.06,1.06h29.71
		c0.59,0,1.06-0.48,1.06-1.06V33.79l7.67,0C51.23,33.79,52.15,31.81,51.14,30.46z M38.54,24.33L23.5,38.37
		c-0.42,0.39-1.06,0.39-1.47-0.01l-8.57-8.12c-0.43-0.41-0.45-1.09-0.04-1.52l2.96-3.11c0.41-0.43,1.09-0.45,1.52-0.04l4.9,4.64
		l11.34-10.59c0.43-0.4,1.11-0.38,1.52,0.05l2.93,3.13C38.99,23.25,38.97,23.93,38.54,24.33z"/>
</g>
</svg>
