<?xml version="1.0" encoding="utf-8"?>
<!-- Generator: Adobe Illustrator 23.0.1, SVG Export Plug-In . SVG Version: 6.00 Build 0)  -->
<svg version="1.1" id="View_Shared_icon" xmlns="http://www.w3.org/2000/svg" xmlns:xlink="http://www.w3.org/1999/xlink" x="0px"
	 y="0px" viewBox="0 0 75 50" style="enable-background:new 0 0 75 50;" xml:space="preserve">
<path d="M37.5,10c-3.65,0-7,1.31-9.6,3.49c0.97-0.62,2.12-0.99,3.35-0.99c3.45,0,6.25,2.8,6.25,6.25c0,3.45-2.8,6.25-6.25,6.25
	S25,22.2,25,18.75c0-1.24,0.37-2.38,0.99-3.35C23.81,18,22.5,21.35,22.5,25c0,8.27,6.73,15,15,15s15-6.73,15-15S45.77,10,37.5,10z"
	/>
<path d="M37.5,0C15,0,0,22.22,0,25c0,2.78,15,25,37.5,25S75,27.78,75,25C75,22.22,60,0,37.5,0z M37.5,45c-11.05,0-20-8.95-20-20
	s8.95-20,20-20s20,8.95,20,20S48.55,45,37.5,45z"/>
</svg>
