<?xml version="1.0" encoding="utf-8"?>
<!-- Generator: Adobe Illustrator 23.0.1, SVG Export Plug-In . SVG Version: 6.00 Build 0)  -->
<svg version="1.1" id="View_Shared_Classwork_button"
	 xmlns="http://www.w3.org/2000/svg" xmlns:xlink="http://www.w3.org/1999/xlink" x="0px" y="0px" viewBox="0 0 50 50"
	 style="enable-background:new 0 0 50 50;" xml:space="preserve">
<g>
	<path d="M47,0H3C1.34,0,0,1.34,0,3v5.71V47c0,1.66,1.34,3,3,3h44c1.66,0,3-1.34,3-3V8.71V3C50,1.34,48.66,0,47,0z M48,47
		c0,0.55-0.45,1-1,1H3c-0.55,0-1-0.45-1-1V8.71h46V47z"/>
</g>
<path d="M25,14.67C13,14.67,5,26.52,5,28c0,1.48,8,13.33,20,13.33S45,29.48,45,28C45,26.52,37,14.67,25,14.67z M25,38.67
	c-5.89,0-10.67-4.78-10.67-10.67S19.11,17.33,25,17.33S35.67,22.11,35.67,28S30.89,38.67,25,38.67z"/>
<path d="M25,20c-1.95,0-3.73,0.7-5.12,1.86c0.52-0.33,1.13-0.53,1.79-0.53c1.84,0,3.33,1.49,3.33,3.33c0,1.84-1.49,3.33-3.33,3.33
	c-1.84,0-3.33-1.49-3.33-3.33c0-0.66,0.2-1.27,0.53-1.79C17.7,24.27,17,26.05,17,28c0,4.41,3.59,8,8,8s8-3.59,8-8S29.41,20,25,20z"
	/>
</svg>
